<svg width="128" height="128" viewBox="0 0 128 128" fill="none" xmlns="http://www.w3.org/2000/svg">
<g clip-path="url(#clip0_103_111)">
<path fill-rule="evenodd" clip-rule="evenodd" d="M0 -17.4545C0 -25.4878 6.31279 -32 14.1 -32H94.7991C97.2926 -32 99.6796 -30.9895 101.415 -29.1991L138.402 8.956C140.068 10.675 141 12.9752 141 15.3694V113.455C141 121.488 134.687 128 126.9 128H14.1C6.31279 128 0 121.488 0 113.455L0 -17.4545Z" fill="#9244FF"/>
<path fill-rule="evenodd" clip-rule="evenodd" d="M-44 57.8182C-44 50.1866 -38.2924 44 -31.2516 44H36.5813C42.0998 44 47.3671 46.307 51.1091 50.3631L78.2456 79.7766C81.6137 83.4274 83.4839 88.2126 83.4839 93.1797V182.182C83.4839 189.813 77.7762 196 70.7355 196H-31.2516C-38.2923 196 -44 189.813 -44 182.182L-44 57.8182Z" fill="#A96CFF"/>
<path d="M20.8557 63.3708C17.6888 63.3199 15.1781 65.8463 15.2485 69.0135C15.3187 72.181 17.9434 74.7902 21.1103 74.8411L43.8118 75.2072L12.9752 106.044C10.7785 108.24 10.8481 111.871 13.1306 114.154C15.4132 116.437 19.0442 116.506 21.241 114.309L51.7695 83.7809L52.2375 105.996C52.304 109.164 54.9259 111.776 58.0929 111.83C58.8443 111.844 59.5854 111.71 60.2738 111.435C60.9623 111.16 61.5845 110.75 62.1049 110.228C62.6294 109.705 63.041 109.079 63.3159 108.387C63.5908 107.694 63.7236 106.949 63.7067 106.194L63.1824 81.3049C63.0944 76.7092 61.222 72.3545 57.9102 69.0427C54.5985 65.731 50.2436 63.8585 45.6307 63.7703L20.8557 63.3708ZM106.844 12.1753L76.0071 43.0119L75.6411 20.3103C75.5899 17.1432 72.981 14.5188 69.8135 14.4486C66.646 14.3783 64.1196 16.8886 64.1708 20.0557L64.5706 44.8482C64.6586 49.4439 66.5309 53.7986 69.8426 57.1102C73.1545 60.4221 77.5091 62.2944 82.0939 62.3823L106.994 62.9068C107.749 62.9237 108.494 62.7908 109.187 62.5159C109.879 62.241 110.505 61.8294 111.028 61.305C111.55 60.7845 111.96 60.1623 112.235 59.4739C112.51 58.7855 112.644 58.0444 112.63 57.293C112.575 54.126 109.964 51.5041 106.796 51.4375L84.5809 50.9695L115.109 20.441C117.306 18.2443 117.237 14.6133 114.954 12.3307C112.671 10.0481 109.04 9.97855 106.844 12.1753Z" fill="#F4F4F4"/>
</g>
<defs>
<clipPath id="clip0_103_111">
<rect width="128" height="128" rx="16" fill="white"/>
</clipPath>
</defs>
</svg>